CMD: /usr/local/bin/ffmpeg -y -i /Users/marcusduggs/Golf_Caddie/media/input/78468228740__DFDF609D-63F1-450B-A931-DFBE5DA7D32C.MOV -i /Users/marcusduggs/Golf_Caddie/test_map.png -filter_complex [1:v]scale=384:-1[map];[0:v][map]overlay=main_w-overlay_w-10:main_h-overlay_h-10 -map 0:a? -c:v libx264 -preset veryfast -crf 23 -pix_fmt yuv420p -c:a aac -b:a 128k -movflags +faststart /Users/marcusduggs/Golf_Caddie/media/output/78468228740__DFDF609D-63F1-450B-A931-DFBE5DA7D32C_processed.mp4

STDOUT:


STDERR:
ffmpeg version 8.0 Copyright (c) 2000-2025 the FFmpeg developers
  built with Apple clang version 16.0.0 (clang-1600.0.26.6)
  configuration: --prefix=/usr/local/Cellar/ffmpeg/8.0_1 --enable-shared --enable-pthreads --enable-version3 --cc=clang --host-cflags= --host-ldflags='-Wl,-ld_classic' --enable-ffplay --enable-gnutls --enable-gpl --enable-libaom --enable-libaribb24 --enable-libbluray --enable-libdav1d --enable-libharfbuzz --enable-libjxl --enable-libmp3lame --enable-libopus --enable-librav1e --enable-librist --enable-librubberband --enable-libsnappy --enable-libsrt --enable-libssh --enable-libsvtav1 --enable-libtesseract --enable-libtheora --enable-libvidstab --enable-libvmaf --enable-libvorbis --enable-libvpx --enable-libwebp --enable-libx264 --enable-libx265 --enable-libxml2 --enable-libxvid --enable-lzma --enable-libfontconfig --enable-libfreetype --enable-frei0r --enable-libass --enable-libopencore-amrnb --enable-libopencore-amrwb --enable-libopenjpeg --enable-libspeex --enable-libsoxr --enable-libzmq --enable-libzimg --disable-libjack --disable-indev=jack --enable-videotoolbox --enable-audiotoolbox
  libavutil      60.  8.100 / 60.  8.100
  libavcodec     62. 11.100 / 62. 11.100
  libavformat    62.  3.100 / 62.  3.100
  libavdevice    62.  1.100 / 62.  1.100
  libavfilter    11.  4.100 / 11.  4.100
  libswscale      9.  1.100 /  9.  1.100
  libswresample   6.  1.100 /  6.  1.100
Input #0, mov,mp4,m4a,3gp,3g2,mj2, from '/Users/marcusduggs/Golf_Caddie/media/input/78468228740__DFDF609D-63F1-450B-A931-DFBE5DA7D32C.MOV':
  Metadata:
    major_brand     : qt  
    minor_version   : 0
    compatible_brands: qt  
    creation_time   : 2025-11-12T23:18:07.000000Z
    com.apple.quicktime.full-frame-rate-playback-intent: 0
    com.apple.quicktime.make: Apple
    com.apple.quicktime.model: iPhone 13 Pro Max
    com.apple.quicktime.software: 18.7.1
    com.apple.quicktime.creationdate: 2025-11-12T15:18:07-0800
  Duration: 00:00:03.31, start: 0.000000, bitrate: 916 kb/s
  Stream #0:0[0x1](und): Video: h264 (Baseline) (avc1 / 0x31637661), yuv420p(tv, smpte170m/bt709/bt709, progressive), 480x360, 787 kb/s, 26.86 fps, 240 tbr, 600 tbn (default)
    Metadata:
      creation_time   : 2025-11-12T23:18:07.000000Z
      handler_name    : Core Media Video
      vendor_id       : [0][0][0][0]
      encoder         : H.264
    Side data:
      displaymatrix: rotation of -90.00 degrees
  Stream #0:1[0x2](und): Audio: aac (LC) (mp4a / 0x6134706D), 44100 Hz, mono, fltp, 74 kb/s (default)
    Metadata:
      creation_time   : 2025-11-12T23:18:07.000000Z
      handler_name    : Core Media Audio
      vendor_id       : [0][0][0][0]
  Stream #0:2[0x3](und): Data: none (mebx / 0x7862656D), 0 kb/s (default)
    Metadata:
      creation_time   : 2025-11-12T23:18:07.000000Z
      handler_name    : Core Media Metadata
  Stream #0:3[0x4](und): Data: none (mebx / 0x7862656D), 0 kb/s (default)
    Metadata:
      creation_time   : 2025-11-12T23:18:07.000000Z
      handler_name    : Core Media Metadata
  Stream #0:4[0x5](und): Data: none (mebx / 0x7862656D), 30 kb/s (default)
    Metadata:
      creation_time   : 2025-11-12T23:18:07.000000Z
      handler_name    : Core Media Metadata
  Stream #0:5[0x6](und): Data: none (mebx / 0x7862656D), 0 kb/s (default)
    Metadata:
      creation_time   : 2025-11-12T23:18:07.000000Z
      handler_name    : Core Media Metadata
Input #1, png_pipe, from '/Users/marcusduggs/Golf_Caddie/test_map.png':
  Duration: N/A, bitrate: N/A
  Stream #1:0: Video: png, pal8(pc, gbr/unknown/unknown), 300x300, 25 fps, 25 tbr, 25 tbn
Stream mapping:
  Stream #0:0 (h264) -> overlay
  Stream #1:0 (png) -> scale:default
  overlay:default -> Stream #0:0 (libx264)
  Stream #0:1 -> #0:1 (aac (native) -> aac (native))
Press [q] to stop, [?] for help
[libx264 @ 0x7fb26a10c840] using cpu capabilities: MMX2 SSE2Fast SSSE3 SSE4.2 AVX FMA3 BMI2 AVX2
[libx264 @ 0x7fb26a10c840] profile High, level 2.1, 4:2:0, 8-bit
[libx264 @ 0x7fb26a10c840] 264 - core 165 r3222 b35605a - H.264/MPEG-4 AVC codec - Copyleft 2003-2025 - http://www.videolan.org/x264.html - options: cabac=1 ref=1 deblock=1:0:0 analyse=0x3:0x113 me=hex subme=2 psy=1 psy_rd=1.00:0.00 mixed_ref=0 me_range=16 chroma_me=1 trellis=0 8x8dct=1 cqm=0 deadzone=21,11 fast_pskip=1 chroma_qp_offset=0 threads=12 lookahead_threads=3 sliced_threads=0 nr=0 decimate=1 interlaced=0 bluray_compat=0 constrained_intra=0 bframes=3 b_pyramid=2 b_adapt=1 b_bias=0 direct=1 weightb=1 open_gop=0 weightp=1 keyint=250 keyint_min=25 scenecut=40 intra_refresh=0 rc_lookahead=10 rc=crf mbtree=1 crf=23.0 qcomp=0.60 qpmin=0 qpmax=69 qpstep=4 ip_ratio=1.40 aq=1:1.00
Output #0, mp4, to '/Users/marcusduggs/Golf_Caddie/media/output/78468228740__DFDF609D-63F1-450B-A931-DFBE5DA7D32C_processed.mp4':
  Metadata:
    major_brand     : qt  
    minor_version   : 0
    compatible_brands: qt  
    com.apple.quicktime.creationdate: 2025-11-12T15:18:07-0800
    com.apple.quicktime.full-frame-rate-playback-intent: 0
    com.apple.quicktime.make: Apple
    com.apple.quicktime.model: iPhone 13 Pro Max
    com.apple.quicktime.software: 18.7.1
    encoder         : Lavf62.3.100
  Stream #0:0: Video: h264 (avc1 / 0x31637661), yuv420p(tv, smpte170m/bt709/bt709, progressive), 360x480, q=2-31, 26.86 fps, 13350 tbn
    Metadata:
      encoder         : Lavc62.11.100 libx264
    Side data:
      cpb: bitrate max/min/avg: 0/0/0 buffer size: 0 vbv_delay: N/A
  Stream #0:1(und): Audio: aac (LC) (mp4a / 0x6134706D), 44100 Hz, mono, fltp, 128 kb/s (default)
    Metadata:
      encoder         : Lavc62.11.100 aac
      creation_time   : 2025-11-12T23:18:07.000000Z
      handler_name    : Core Media Audio
      vendor_id       : [0][0][0][0]
[mp4 @ 0x7fb26a10b9c0] Starting second pass: moving the moov atom to the beginning of the file
[out#0/mp4 @ 0x7fb26a107b00] video:85KiB audio:49KiB subtitle:0KiB other streams:0KiB global headers:0KiB muxing overhead: 3.333309%
frame=   85 fps=0.0 q=-1.0 Lsize=     138KiB time=00:00:03.23 bitrate= 349.7kbits/s dup=0 drop=4 speed=34.2x elapsed=0:00:00.09    
[libx264 @ 0x7fb26a10c840] frame I:1     Avg QP:22.49  size: 20102
[libx264 @ 0x7fb26a10c840] frame P:31    Avg QP:22.90  size:  1073
[libx264 @ 0x7fb26a10c840] frame B:53    Avg QP:25.45  size:   622
[libx264 @ 0x7fb26a10c840] consecutive B-frames: 12.9%  7.1% 14.1% 65.9%
[libx264 @ 0x7fb26a10c840] mb I  I16..4: 21.4% 20.6% 58.0%
[libx264 @ 0x7fb26a10c840] mb P  I16..4:  7.9%  6.6%  1.5%  P16..4:  5.5%  2.4%  0.7%  0.0%  0.0%    skip:75.3%
[libx264 @ 0x7fb26a10c840] mb B  I16..4:  2.3%  1.6%  0.4%  B16..8:  5.9%  3.6%  0.4%  direct: 2.0%  skip:83.8%  L0:45.9% L1:43.7% BI:10.4%
[libx264 @ 0x7fb26a10c840] 8x8 transform intra:37.6% inter:24.6%
[libx264 @ 0x7fb26a10c840] coded y,uvDC,uvAC intra: 32.8% 43.7% 15.4% inter: 2.5% 4.0% 0.5%
[libx264 @ 0x7fb26a10c840] i16 v,h,dc,p: 50% 32% 15%  3%
[libx264 @ 0x7fb26a10c840] i8 v,h,dc,ddl,ddr,vr,hd,vl,hu: 33% 32% 29%  2%  1%  1%  1%  1%  1%
[libx264 @ 0x7fb26a10c840] i4 v,h,dc,ddl,ddr,vr,hd,vl,hu: 21% 44% 13%  3%  5%  3%  4%  3%  3%
[libx264 @ 0x7fb26a10c840] i8c dc,h,v,p: 50% 26% 23%  2%
[libx264 @ 0x7fb26a10c840] Weighted P-Frames: Y:0.0% UV:0.0%
[libx264 @ 0x7fb26a10c840] kb/s:206.21
[aac @ 0x7fb26a10dfc0] Qavg: 7788.142
